<svg xmlns="http://www.w3.org/2000/svg" xmlns:xlink="http://www.w3.org/1999/xlink" version="1.1" width="35" height="35" viewBox="0 0 256 256" xml:space="preserve">

<defs>
</defs>
<g style="stroke: none; stroke-width: 0; stroke-dasharray: none; stroke-linecap: butt; stroke-linejoin: miter; stroke-miterlimit: 10; fill: none; fill-rule: nonzero; opacity: 1;" transform="translate(1.4065934065934016 1.4065934065934016) scale(2.81 2.81)" >
	<path d="M 46.184 33.546 c -0.194 0 -0.379 -0.114 -0.46 -0.305 c -3.315 -7.807 -0.718 -17.371 6.948 -25.583 c 0.189 -0.201 0.506 -0.212 0.706 -0.024 c 0.202 0.188 0.213 0.505 0.024 0.707 c -7.387 7.915 -9.914 17.078 -6.758 24.51 c 0.108 0.254 -0.011 0.547 -0.265 0.656 C 46.316 33.533 46.249 33.546 46.184 33.546 z" style="stroke: none; stroke-width: 1; stroke-dasharray: none; stroke-linecap: butt; stroke-linejoin: miter; stroke-miterlimit: 10; fill: rgb(51,51,51); fill-rule: nonzero; opacity: 1;" transform=" matrix(1 0 0 1 0 0) " stroke-linecap="round" />
	<ellipse cx="38.223" cy="8.995" rx="7.023" ry="11.325" style="stroke: none; stroke-width: 1; stroke-dasharray: none; stroke-linecap: butt; stroke-linejoin: miter; stroke-miterlimit: 10; fill: rgb(185,166,29); fill-rule: nonzero; opacity: 1;" transform=" matrix(0.7071 -0.7071 0.7071 0.7071 4.8358 29.6613) "/>
	<path d="M 30.214 0.985 c 3.65 -2.029 9.051 -0.881 12.974 3.042 s 5.071 9.324 3.042 12.974 L 30.214 0.985 z" style="stroke: none; stroke-width: 1; stroke-dasharray: none; stroke-linecap: butt; stroke-linejoin: miter; stroke-miterlimit: 10; fill: rgb(206,185,35); fill-rule: nonzero; opacity: 1;" transform=" matrix(1 0 0 1 0 0) " stroke-linecap="round" />
	<path d="M 45 24.878 C 25.001 15.224 4.941 31.014 8.995 55.01 C 13.314 75.47 26.79 92.674 45 89.655 C 63.21 92.674 76.686 75.47 81.005 55.01 C 85.059 31.014 64.999 15.224 45 24.878 z" style="stroke: none; stroke-width: 1; stroke-dasharray: none; stroke-linecap: butt; stroke-linejoin: miter; stroke-miterlimit: 10; fill: rgb(225,57,25); fill-rule: nonzero; opacity: 1;" transform=" matrix(1 0 0 1 0 0) " stroke-linecap="round" />
	<path d="M 23.357 55.01 c -1.812 -17.841 4.391 -31.135 12.632 -32.82 C 19.476 20.207 5.556 34.65 8.995 55.01 c 4.069 19.275 16.268 35.654 32.894 34.961 C 32.53 89.289 25.7 73.479 23.357 55.01 z" style="stroke: none; stroke-width: 1; stroke-dasharray: none; stroke-linecap: butt; stroke-linejoin: miter; stroke-miterlimit: 10; fill: rgb(209,51,21); fill-rule: nonzero; opacity: 1;" transform=" matrix(1 0 0 1 0 0) " stroke-linecap="round" />
</g>
</svg>